<svg width="56" height="56" viewBox="0 0 56 56" fill="none" xmlns="http://www.w3.org/2000/svg">
<rect width="56" height="56" rx="28" fill="#249F58"/>
<path fill-rule="evenodd" clip-rule="evenodd" d="M27.9996 11.5728L50.3996 27.9994L27.9996 44.4261L5.59961 27.9994" fill="#FFDA2C"/>
<path d="M28 38.4527C33.7732 38.4527 38.4534 33.7726 38.4534 27.9993C38.4534 22.2261 33.7732 17.546 28 17.546C22.2268 17.546 17.5467 22.2261 17.5467 27.9993C17.5467 33.7726 22.2268 38.4527 28 38.4527Z" fill="#1A47B8"/>
<path fill-rule="evenodd" clip-rule="evenodd" d="M23.5189 32.4793V35.466H26.5056V32.4793H23.5189ZM29.4923 32.4793V35.466H32.4789V32.4793H29.4923Z" fill="white"/>
<path fill-rule="evenodd" clip-rule="evenodd" d="M20.2077 25.3579C20.2077 25.3579 20.2079 25.3579 20.5327 23.5197C20.8575 21.6815 20.8579 21.6816 20.8579 21.6816L20.8649 21.6829L20.8822 21.686L20.9451 21.6974C20.9994 21.7073 21.0782 21.7218 21.1794 21.7409C21.3816 21.7792 21.6734 21.8357 22.0378 21.9098C22.766 22.0581 23.7869 22.2776 24.964 22.5639C27.2991 23.1317 30.3247 23.9802 32.9028 25.0828L39.1882 27.7774L37.7172 31.2087L31.4339 28.515C29.1379 27.5331 26.3459 26.7421 24.0818 26.1915C22.9591 25.9184 21.985 25.709 21.293 25.5681C20.9473 25.4977 20.6727 25.4446 20.4862 25.4094C20.3929 25.3917 20.3217 25.3786 20.2746 25.37L20.2223 25.3605L20.2103 25.3584L20.2077 25.3579Z" fill="white"/>
</svg>
