<svg width="230" height="198" viewBox="0 0 230 198" fill="none" xmlns="http://www.w3.org/2000/svg">
<g clip-path="url(#clip0_224_680)">
<path d="M112.443 63.7507V74.4908H108.955V47.9291H118.023C120.231 47.9291 122.324 48.7375 123.951 50.2388C125.579 51.6247 126.393 53.7034 126.393 55.8976C126.393 58.0919 125.579 60.0551 123.951 61.5564C122.324 63.0577 120.348 63.8661 118.023 63.8661L112.443 63.7507ZM112.443 51.1627V60.4016H118.255C119.534 60.4016 120.813 59.9396 121.626 59.0157C123.486 57.2835 123.486 54.3963 121.743 52.664L121.626 52.5486C120.696 51.6247 119.534 51.0472 118.255 51.1627H112.443Z" fill="#5F6368"/>
<path d="M134.414 55.7822C136.971 55.7822 138.948 56.4751 140.459 57.8609C141.97 59.2467 142.668 61.0945 142.668 63.4042V74.4908H139.413V71.9501H139.296C137.901 74.0289 135.925 75.0683 133.6 75.0683C131.624 75.0683 129.88 74.4908 128.485 73.336C127.206 72.1811 126.393 70.5643 126.393 68.832C126.393 66.9843 127.09 65.483 128.485 64.3281C129.88 63.1732 131.856 62.7113 134.181 62.7113C136.274 62.7113 137.901 63.0578 139.18 63.8662V63.0578C139.18 61.9029 138.715 60.748 137.785 60.0551C136.855 59.2467 135.693 58.7848 134.414 58.7848C132.438 58.7848 130.926 59.5932 129.88 61.21L126.858 59.3622C128.718 56.937 131.159 55.7822 134.414 55.7822ZM129.996 68.9475C129.996 69.8714 130.461 70.6798 131.159 71.1417C131.973 71.7192 132.903 72.0656 133.833 72.0656C135.228 72.0656 136.623 71.4882 137.669 70.4488C138.831 69.4095 139.413 68.1391 139.413 66.7533C138.366 65.9449 136.855 65.483 134.879 65.483C133.484 65.483 132.321 65.8294 131.391 66.5223C130.461 67.0998 129.996 67.9082 129.996 68.9475Z" fill="#5F6368"/>
<path d="M161.5 56.3596L149.991 82.5748H146.504L150.805 73.4514L143.249 56.4751H146.969L152.432 69.5249H152.549L157.896 56.4751H161.5V56.3596Z" fill="#5F6368"/>
<path d="M98.609 61.4409C98.609 60.4016 98.4927 59.3622 98.3765 58.3228H83.8452V64.2126H92.099C91.7502 66.0604 90.704 67.7926 89.0765 68.832V72.643H94.0752C96.9815 69.9869 98.609 66.0604 98.609 61.4409Z" fill="#4285F4"/>
<path d="M83.8449 76.3386C88.0299 76.3386 91.5174 74.9528 94.0749 72.643L89.0762 68.832C87.6812 69.7559 85.9374 70.3333 83.8449 70.3333C79.8924 70.3333 76.4049 67.6772 75.2424 63.9816H70.1274V67.9081C72.8012 73.105 78.0324 76.3386 83.8449 76.3386Z" fill="#34A853"/>
<path d="M75.2423 63.9816C74.5448 62.1338 74.5448 60.0551 75.2423 58.0919V54.1653H70.1273C67.9185 58.4383 67.9185 63.5197 70.1273 67.9081L75.2423 63.9816Z" fill="#FBBC04"/>
<path d="M83.8449 51.8556C86.0537 51.8556 88.1462 52.664 89.7737 54.1654L94.1912 49.7769C91.4012 47.2362 87.6812 45.7349 83.9612 45.8504C78.1487 45.8504 72.8012 49.084 70.2437 54.2808L75.3587 58.2073C76.4049 54.5118 79.8924 51.8556 83.8449 51.8556Z" fill="#EA4335"/>
</g>
<rect x="64" y="99" width="102" height="2" rx="1" fill="#EACCCC"/>
<g clip-path="url(#clip1_224_680)">
<path d="M82.6479 120.415C81.4526 121.833 79.5401 122.952 77.6276 122.793C77.3885 120.874 78.3248 118.836 79.4205 117.578C80.6159 116.119 82.7077 115.08 84.401 115C84.6002 116.998 83.8233 118.956 82.6479 120.415ZM84.3811 123.172C81.6119 123.012 79.2412 124.751 77.9264 124.751C76.5916 124.751 74.5795 123.252 72.3881 123.292C69.5393 123.332 66.8897 124.951 65.4354 127.528C62.4471 132.683 64.6584 140.316 67.5471 144.512C68.9616 146.59 70.6549 148.868 72.8862 148.788C74.9979 148.708 75.8346 147.409 78.3846 147.409C80.9545 147.409 81.6916 148.788 83.9229 148.748C86.2338 148.708 87.6881 146.67 89.1026 144.592C90.7162 142.234 91.3737 139.936 91.4135 139.816C91.3737 139.776 86.951 138.078 86.9112 132.963C86.8713 128.687 90.3975 126.649 90.5569 126.529C88.5647 123.572 85.4569 123.252 84.3811 123.172ZM100.378 117.378V148.528H105.199V137.878H111.873C117.969 137.878 122.253 133.682 122.253 127.608C122.253 121.534 118.049 117.378 112.033 117.378H100.378ZM105.199 121.454H110.758C114.941 121.454 117.332 123.692 117.332 127.628C117.332 131.564 114.941 133.822 110.738 133.822H105.199V121.454ZM131.058 148.768C134.086 148.768 136.895 147.229 138.17 144.792H138.27V148.528H142.732V133.023C142.732 128.527 139.146 125.63 133.628 125.63C128.508 125.63 124.723 128.567 124.583 132.603H128.926C129.285 130.685 131.058 129.426 133.489 129.426C136.437 129.426 138.09 130.805 138.09 133.343V135.061L132.074 135.421C126.476 135.76 123.448 138.058 123.448 142.054C123.448 146.09 126.576 148.768 131.058 148.768ZM132.353 145.071C129.783 145.071 128.149 143.833 128.149 141.934C128.149 139.976 129.723 138.837 132.731 138.657L138.09 138.318V140.076C138.09 142.993 135.62 145.071 132.353 145.071ZM148.689 157C153.39 157 155.602 155.202 157.534 149.747L166.001 125.93H161.1L155.423 144.332H155.323L149.645 125.93H144.605L152.773 148.608L152.335 149.987C151.598 152.324 150.402 153.224 148.271 153.224C147.892 153.224 147.155 153.184 146.856 153.144V156.88C147.135 156.96 148.33 157 148.689 157Z" fill="black"/>
</g>
<defs>
<clipPath id="clip0_224_680">
<rect width="93" height="44" fill="white" transform="translate(68.5 41)"/>
</clipPath>
<clipPath id="clip1_224_680">
<rect width="102" height="42" fill="white" transform="translate(64 115)"/>
</clipPath>
</defs>
</svg>
